# xmcd
#
# Track frame offsets:
# 150
# 25987
# 36365
# 47314
# 60307
# 73945
# 83540
# 98990
# 109370
# 125967
# 142675
# 153070
# 166770
# 177930
# 187407
# 195765
#
# Disc length: 3015 seconds
#
#
# Revision: 1
# Processed by: cddbd v1.5.1PL2 Copyright (c) Steve Scherf et al.
# Submitted via: FreeRIP 2.942 
#
DISCID=d00bc510
DTITLE=Geraldo Vandré - Pérolas
DYEAR=2000
DGENRE=MPB
TTITLE0=Pra Não Dizer Que Não Falei Das Flores
TTITLE1=Só Por Amor
TTITLE2=Fica Mal Com Deus
TTITLE3=Quem Quiser Encontrar O Amor
TTITLE4=Rosa Flor
TTITLE5=Porta Estandarte
TTITLE6=Samba Em Prelúdio
TTITLE7=Sonho De Amor E Paz
TTITLE8=Tristeza De Amar
TTITLE9=Berimbau
TTITLE10=Depois É Só Chorar
TTITLE11=Canção Nordestina
TTITLE12=Pequeno Concerto Que Virou Canção
TTITLE13=Ninguém Pode Mais Sofrer
TTITLE14=Canção Do Breve Amor
TTITLE15=Pra Não Dizer Que Não Falei Das Flores
EXTD=GEARLDO VANDRE  álbum PEROLAS
EXTT0=
EXTT1=
EXTT2=
EXTT3=
EXTT4=
EXTT5=
EXTT6=
EXTT7=
EXTT8=
EXTT9=
EXTT10=
EXTT11=
EXTT12=
EXTT13=
EXTT14=
EXTT15=
PLAYORDER=
